<?xml version="1.0" encoding="UTF-8"?>
<svg width="18px" height="18px" viewBox="0 0 18 18" version="1.1" xmlns="http://www.w3.org/2000/svg" xmlns:xlink="http://www.w3.org/1999/xlink">
    <title>Path</title>
    <g id="Symbols" stroke="none" stroke-width="1" fill="none" fill-rule="evenodd">
        <g id="Gallery\New_Item_Card" transform="translate(-66.000000, -61.000000)" fill="#FFFFFF" fill-rule="nonzero">
            <g transform="translate(0.174825, 61.000000)" id="Path">
                <path d="M65.8251748,9 C65.8251748,8.4477 66.2728948,8 66.8251748,8 L73.8251748,8 L73.8251748,1 C73.8251748,0.44772 74.2728748,0 74.8251748,0 C75.3774748,0 75.8251748,0.44772 75.8251748,1 L75.8251748,8 L82.8251748,8 C83.3774748,8 83.8251748,8.4477 83.8251748,9 C83.8251748,9.5523 83.3774748,10 82.8251748,10 L75.8251748,10 L75.8251748,17 C75.8251748,17.5523 75.3774748,18 74.8251748,18 C74.2728748,18 73.8251748,17.5523 73.8251748,17 C74.9918415,13.5 74.9918415,11.1666667 73.8251748,10 C72.6585082,8.83333333 70.3251748,8.83333333 66.8251748,10 C66.2728948,10 65.8251748,9.5523 65.8251748,9 Z"></path>
            </g>
        </g>
    </g>
</svg>