<?xml version="1.0" encoding="UTF-8"?>
<svg width="20px" height="20px" viewBox="0 0 20 20" version="1.1" xmlns="http://www.w3.org/2000/svg" xmlns:xlink="http://www.w3.org/1999/xlink">
    <title>Bag_Icon</title>
    <g id="Bag_Icon" stroke="none" stroke-width="1" fill="none" fill-rule="evenodd">
        <path d="M7.00000586,5 C7.00000586,3.34315 8.34311586,2 10.0000059,2 C11.6568159,2 13.0000059,3.34315 13.0000059,5 L13.0000059,8 L7.00000586,8 L7.00000586,5 Z M15.0000159,5 L15.0000159,8 L17.0000159,8 C17.4767159,8 17.8871159,8.3365 17.9806159,8.8039 L19.9806159,18.8039 C20.0393159,19.0977 19.9633159,19.4023 19.7733159,19.634 C19.5834159,19.8657 19.2996159,20 19.0000159,20 L1,20 C0.700415856,20 0.416605856,19.8657 0.226665856,19.634 C0.0367258565,19.4023 -0.0393241435,19.0977 0.0194258565,18.8039 L2.01942586,8.8039 C2.11291586,8.3365 2.52332586,8 3,8 L5,8 L5,5 C5,2.23858 7.23858586,0 10.0000159,0 C12.7614159,0 15.0000159,2.23858 15.0000159,5 Z" id="Shape" fill="#96A7AF"></path>
    </g>
</svg>