<?xml version="1.0" encoding="UTF-8"?>
<svg width="22px" height="16px" viewBox="0 0 22 16" version="1.1" xmlns="http://www.w3.org/2000/svg" xmlns:xlink="http://www.w3.org/1999/xlink">
    <title>Card_Icon</title>
    <g id="Card_Icon" stroke="none" stroke-width="1" fill="none" fill-rule="evenodd">
        <g id="Card-(filled)" fill="#96A7AF">
            <path d="M19,0 L3,0 C1.34315,0 0,1.34315 0,3 L0,4 L22,4 L22,3 C22,1.34315 20.6569,0 19,0 Z M0,13 L0,6 L22,6 L22,13 C22,14.6569 20.6569,16 19,16 L3,16 C1.34315,16 0,14.6569 0,13 Z M12,10 C11.4477,10 11,10.4477 11,11 C11,11.5523 11.4477,12 12,12 L17,12 C17.5523,12 18,11.5523 18,11 C18,10.4477 17.5523,10 17,10 L12,10 Z" id="Shape"></path>
        </g>
    </g>
</svg>