<?xml version="1.0" encoding="UTF-8"?>
<svg width="22px" height="20px" viewBox="0 0 22 20" version="1.1" xmlns="http://www.w3.org/2000/svg" xmlns:xlink="http://www.w3.org/1999/xlink">
    <title>Chat_Icon</title>
    <g id="Chat_Icon" stroke="none" stroke-width="1" fill="none" fill-rule="evenodd">
        <path d="M20.8182,9.19 C19.8523,13.6296 15.1524,16.9983 9.5,16.9983 C8.68464,16.9983 7.88909,16.9282 7.1217,16.7949 C8.67929,18.146 10.9595,18.9983 13.5,18.9983 C14.8976,18.9983 16.2165,18.7403 17.3796,18.2833 C17.9455,18.0609 19.8344,18.6849 21.0146,19.1189 C21.4108,19.2647 21.8201,18.8896 21.7114,18.4817 C21.4075,17.3413 21.0071,15.5907 21.2727,15.1331 C21.7402,14.3277 22,13.4362 22,12.4983 C22,11.2902 21.569,10.1591 20.8182,9.19 Z" id="Path" fill="#96A7AF"></path>
        <path d="M19,7.5 C19,11.6421 14.7467,15 9.5,15 C8.07102,15 6.71574,14.7509 5.5,14.3048 C4.85423,14.0678 2.42216,14.7467 1.0178,15.1764 C0.61212,15.3006 0.22655,14.897 0.36365,14.4955 C0.77292,13.297 1.33908,11.3878 1,10.8531 C0.3601,9.8441 0,8.7052 0,7.5 C0,3.35786 4.25329,1.5720758e-13 9.5,1.5720758e-13 C14.7467,1.5720758e-13 19,3.35786 19,7.5 Z" id="Path" fill="#96A7AF" fill-rule="nonzero"></path>
    </g>
</svg>