<?xml version="1.0" encoding="UTF-8"?>
<svg width="14px" height="14px" viewBox="0 0 14 14" version="1.1" xmlns="http://www.w3.org/2000/svg" xmlns:xlink="http://www.w3.org/1999/xlink">
    <title>Combined Shape</title>
    <g id="Symbols" stroke="none" stroke-width="1" fill="none" fill-rule="evenodd">
        <g id="Circled_Navigation\Cross" transform="translate(-23.000000, -23.000000)" fill="#899A96" fill-rule="nonzero">
            <path d="M25.05025,23.63604 L29.99915,28.5851462 L34.9497,23.63604 C35.3403,23.24552 35.9734,23.24552 36.364,23.63604 C36.7545,24.02656 36.7545,24.65973 36.364,25.05025 L31.41415,29.9991462 L36.364,34.9497 C36.7545,35.3403 36.7545,35.9734 36.364,36.364 C35.9734,36.7545 35.3403,36.7545 34.9497,36.364 L29.99915,31.4141462 L25.05025,36.364 C24.65973,36.7545 24.02656,36.7545 23.63604,36.364 C23.24552,35.9734 23.24552,35.3403 23.63604,34.9497 L28.58515,29.9991462 L23.63604,25.05025 C23.24552,24.65973 23.24552,24.02656 23.63604,23.63604 C24.02656,23.24552 24.65973,23.24551 25.05025,23.63604 Z" id="Combined-Shape"></path>
        </g>
    </g>
</svg>