<?xml version="1.0" encoding="UTF-8"?>
<svg width="21px" height="21px" viewBox="0 0 21 21" version="1.1" xmlns="http://www.w3.org/2000/svg" xmlns:xlink="http://www.w3.org/1999/xlink">
    <title>Search\Filter</title>
    <g id="Search\Filter" stroke="none" stroke-width="1" fill="none" fill-rule="evenodd">
        <path d="M2,0 C2.55228,0 3,0.447715 3,1 L3,2 C3,2.55228 2.55228,3 2,3 C1.44772,3 1,2.55228 1,2 L1,1 C1,0.447715 1.44772,0 2,0 Z M2,5 C3.10457,5 4,5.89543 4,7 C4,8.10457 3.10457,9 2,9 C0.89543,9 0,8.10457 0,7 C0,5.89543 0.89543,5 2,5 Z M19,8 C20.1046,8 21,8.89543 21,10 C21,11.1046 20.1046,12 19,12 C17.8954,12 17,11.1046 17,10 C17,8.89543 17.8954,8 19,8 Z M10,11 C11.1046,11 12,11.8954 12,13 C12,14.1046 11.1046,15 10,15 C8.89543,15 8,14.1046 8,13 C8,11.8954 8.89543,11 10,11 Z M10,17 C10.5523,17 11,17.4477 11,18 L11,20 C11,20.5523 10.5523,21 10,21 C9.44771,21 9,20.5523 9,20 L9,18 C9,17.4477 9.44771,17 10,17 Z M2,11 C2.55228,11 3,11.4477 3,12 L3,20 C3,20.5523 2.55228,21 2,21 C1.44772,21 1,20.5523 1,20 L1,12 C1,11.4477 1.44772,11 2,11 Z M19,0 C19.5523,0 20,0.447715 20,1 L20,5 C20,5.55228 19.5523,6 19,6 C18.4477,6 18,5.55228 18,5 L18,1 C18,0.447715 18.4477,0 19,0 Z M19,13 C19.5523,13 20,13.4477 20,14 L20,20 C20,20.5523 19.5523,21 19,21 C18.4477,21 18,20.5523 18,20 L18,14 C18,13.4477 18.4477,13 19,13 Z M10,0 C10.5523,0 11,0.447715 11,1 L11,8 C11,8.55229 10.5523,9 10,9 C9.44771,9 9,8.55229 9,8 L9,1 C9,0.447715 9.44771,0 10,0 Z" id="Shape" fill="#FFFFFF"></path>
    </g>
</svg>