<?xml version="1.0" encoding="UTF-8"?>
<svg width="19px" height="19px" viewBox="0 0 19 19" version="1.1" xmlns="http://www.w3.org/2000/svg" xmlns:xlink="http://www.w3.org/1999/xlink">
    <title>4_Elements_Navigation\Home\Off</title>
    <g id="4_Elements_Navigation\Home\Off" stroke="none" stroke-width="1" fill="none" fill-rule="evenodd">
        <path d="M19,15.9434014 L19,10.4338826 C19,8.63171205 19,7.73067774 18.6295,6.93421985 C18.2588944,6.13776197 17.5611722,5.53911695 16.1657278,4.34182692 L15.1101722,3.43617715 C12.44025,1.14538899 11.1052889,0 9.5,0 C7.89471111,0 6.55975,1.14538899 3.88981722,3.43617715 L2.83426167,4.34182692 C1.43880667,5.53911695 0.741084444,6.13776197 0.370542222,6.93421985 C0,7.73067774 0,8.63171205 0,10.4338826 L0,15.9434014 C0,16.8928828 0,17.3675726 0.160697778,17.7421078 C0.374965,18.2413522 0.785945556,18.6380987 1.30322056,18.8449286 C1.69119,19 2.18301556,19 3.16666667,19 L3.518515,19 C4.17293833,19 4.50016056,19 4.76862,18.9306152 C5.49714333,18.742125 6.06619333,18.1928542 6.26139722,17.4896328 C6.33333333,17.2305351 6.33333333,16.9146866 6.33333333,16.2829895 L6.33333333,13.9056691 C6.33333333,12.2175097 7.75105,10.8490705 9.5,10.8490705 C11.24895,10.8490705 12.6666667,12.2175097 12.6666667,13.9056691 L12.6666667,16.2829895 C12.6666667,16.9146866 12.6666667,17.2305351 12.73855,17.4896328 C12.9338278,18.1928542 13.5028778,18.742125 14.2314222,18.9306152 C14.49985,19 14.8270722,19 15.4815167,19 L15.8333333,19 C16.8170056,19 17.3087889,19 17.6968111,18.8449286 C18.2140333,18.6380987 18.6250667,18.2413522 18.8393444,17.7421078 C19,17.3675726 19,16.8928828 19,15.9434014 Z" id="Path" fill="#96A7AF" fill-rule="nonzero"></path>
    </g>
</svg>