<?xml version="1.0" encoding="UTF-8"?>
<svg width="19px" height="19px" viewBox="0 0 19 19" version="1.1" xmlns="http://www.w3.org/2000/svg" xmlns:xlink="http://www.w3.org/1999/xlink">
    <title>4_Elements_Navigation\Message\Off</title>
    <g id="4_Elements_Navigation\Message\Off" stroke="none" stroke-width="1" fill="none" fill-rule="evenodd">
        <path d="M1.23665722,1.26577357 C0,2.53155794 0,4.56878601 0,8.64326376 L0,16.9034149 C0,17.7489421 0,18.1717058 0.109207778,18.3979432 C0.343583333,18.8834785 0.892947222,19.1164145 1.39410389,18.9427929 C1.62761389,18.8617623 1.91968611,18.5629215 2.50382,17.9650237 L2.50383056,17.9650237 L2.50385167,17.9649157 C2.97752167,17.4801366 3.21435667,17.2376931 3.47533222,17.0419232 C4.02224722,16.6316923 4.65764944,16.3623465 5.32777944,16.2565746 C5.64756,16.2061196 5.98249833,16.2061196 6.65236444,16.2061196 L11.0833333,16.2061196 C14.5534722,16.2061196 16.2884889,16.2061196 17.4563556,15.2251091 C17.6701056,15.0455453 17.8661222,14.8449135 18.0415556,14.6261309 C19,13.4307676 19,11.654901 19,8.10305978 C19,4.55124018 19,2.77533039 18.0415556,1.58002103 C17.8661222,1.3611952 17.6701056,1.16055263 17.4563556,0.98096722 C16.2884889,0 14.5534722,0 11.0833333,0 L8.44444444,0 C4.46369111,0 2.473325,0 1.23665722,1.26577357 Z M4.75,9.72367173 C5.62445389,9.72367173 6.33333333,8.99806974 6.33333333,8.10305978 C6.33333333,7.20804981 5.62445389,6.48244782 4.75,6.48244782 C3.87554611,6.48244782 3.16666667,7.20804981 3.16666667,8.10305978 C3.16666667,8.99806974 3.87554611,9.72367173 4.75,9.72367173 Z M11.0833333,8.10305978 C11.0833333,8.99806974 10.3744222,9.72367173 9.5,9.72367173 C8.62557778,9.72367173 7.91666667,8.99806974 7.91666667,8.10305978 C7.91666667,7.20804981 8.62557778,6.48244782 9.5,6.48244782 C10.3744222,6.48244782 11.0833333,7.20804981 11.0833333,8.10305978 Z M14.25,9.72367173 C15.1244222,9.72367173 15.8333333,8.99806974 15.8333333,8.10305978 C15.8333333,7.20804981 15.1244222,6.48244782 14.25,6.48244782 C13.3755778,6.48244782 12.6666667,7.20804981 12.6666667,8.10305978 C12.6666667,8.99806974 13.3755778,9.72367173 14.25,9.72367173 Z" id="Shape" fill="#96A7AF"></path>
    </g>
</svg>