<?xml version="1.0" encoding="UTF-8"?>
<svg width="20px" height="19px" viewBox="0 0 20 19" version="1.1" xmlns="http://www.w3.org/2000/svg" xmlns:xlink="http://www.w3.org/1999/xlink">
    <title>5_Elements_Navigation\Star\Off</title>
    <g id="5_Elements_Navigation\Star\Off" stroke="none" stroke-width="1" fill="none" fill-rule="evenodd">
        <path d="M9.08464421,0.597007205 C9.43202903,-0.199002402 10.5679634,-0.199002402 10.9153482,0.597007205 L13.0167171,5.41287127 C13.1612778,5.7441718 13.4756402,5.97115272 13.8373913,6.00540707 L19.095652,6.50333939 C19.9648124,6.58563906 20.3157888,7.65924274 19.6613246,8.23346659 L15.7018161,11.7077796 C15.4294553,11.9468165 15.3093371,12.3140469 15.3883517,12.6665048 L16.5367568,17.7901822 C16.7265116,18.6370726 15.807568,19.3005461 15.0557323,18.8594532 L10.507206,16.1907866 C10.1943402,16.0072705 9.80565227,16.0072705 9.49278645,16.1907866 L4.94427015,18.8594532 C4.19244441,19.3005461 3.27346093,18.6370726 3.4632755,17.7901822 L4.61163073,12.6665048 C4.69062536,12.3140469 4.57054714,11.9468165 4.29816632,11.7077796 L0.338657832,8.23346659 C-0.315796404,7.65924274 0.0352198894,6.58563906 0.904350359,6.50333939 L6.16260117,6.00540707 C6.52433232,5.97115272 6.83871458,5.7441718 6.98327535,5.41287127 L9.08464421,0.597007205 Z" id="Path" fill="#96A7AF" fill-rule="nonzero"></path>
    </g>
</svg>