<?xml version="1.0" encoding="UTF-8"?>
<svg width="19px" height="22px" viewBox="0 0 19 22" version="1.1" xmlns="http://www.w3.org/2000/svg" xmlns:xlink="http://www.w3.org/1999/xlink">
    <title>4_Elements_Navigation\Bell\Off</title>
    <g id="4_Elements_Navigation\Bell\Off" stroke="none" stroke-width="1" fill="none" fill-rule="evenodd">
        <path d="M2.69505437,6.6 C2.69505437,2.954919 5.69737848,3.55271368e-15 9.40093672,3.55271368e-15 C13.1044838,3.55271368e-15 16.1068191,2.954919 16.1068191,6.6 L16.1068191,9.42854 C16.1068191,10.44857 16.4430073,11.4411 17.0647544,12.25719 L18.4848367,14.12059 C19.028125,14.83361 18.8693073,15.80997 18.0378897,16.16307 C16.5418073,16.79854 13.7856897,17.6 9.40093672,17.6 C5.01620613,17.6 2.26006613,16.79854 0.763927895,16.16307 C-0.0674673995,15.80997 -0.226251517,14.83361 0.317047895,14.12059 L1.73707437,12.25719 C2.35891084,11.4411 2.69505437,10.44857 2.69505437,9.42854 L2.69505437,6.6 Z M6.64167848,19.1356 C6.85380789,20.44735 8.00846025,21.45 9.40093672,21.45 C10.7934132,21.45 11.9480544,20.44735 12.1601838,19.1356 C11.3228426,19.20798 10.404472,19.25 9.40093672,19.25 C8.39728966,19.25 7.47903084,19.20798 6.64167848,19.1356 Z" id="Combined-Shape" fill="#96A7AF" fill-rule="nonzero"></path>
    </g>
</svg>