<?xml version="1.0" encoding="UTF-8"?>
<svg width="20px" height="20px" viewBox="0 0 20 20" version="1.1" xmlns="http://www.w3.org/2000/svg" xmlns:xlink="http://www.w3.org/1999/xlink">
    <title>Settings_Icon</title>
    <g id="Settings_Icon" stroke="none" stroke-width="1" fill="none" fill-rule="evenodd">
        <path d="M11.8992817,1.7230125 C11.4510817,-0.5743375 8.16428172,-0.5743375 7.71605172,1.7230125 C7.44332172,3.1209725 5.90236172,3.8630625 4.63934172,3.2046725 C2.56376172,2.1227125 0.514421719,4.6925025 2.03112172,6.4752825 C2.95405172,7.5601225 2.57346172,9.2275725 1.27123172,9.8045725 C-0.868778281,10.7526725 -0.137378281,13.9571725 2.20210172,13.8829725 C3.62570172,13.8377725 4.69208172,15.1749725 4.33125172,16.5527725 C3.73827172,18.8170725 6.69965172,20.2432725 8.10028172,18.3678725 C8.95248172,17.2266725 10.6628817,17.2266725 11.5150817,18.3678725 C12.9156817,20.2432725 15.8770817,18.8170725 15.2840817,16.5527725 C14.9232817,15.1749725 15.9896817,13.8377725 17.4132817,13.8829725 C19.7527817,13.9571725 20.4841817,10.7526725 18.3440817,9.8045725 C17.0418817,9.2275725 16.6612817,7.5601225 17.5842817,6.4752825 C19.1009817,4.6925025 17.0515817,2.1227125 14.9759817,3.2046725 C13.7129817,3.8630625 12.1720817,3.1209725 11.8992817,1.7230125 Z M9.80768172,13.0015725 C11.4645817,13.0015725 12.8076817,11.6584725 12.8076817,10.0015725 C12.8076817,8.3446725 11.4645817,7.0015725 9.80768172,7.0015725 C8.15078172,7.0015725 6.80768172,8.3446725 6.80768172,10.0015725 C6.80768172,11.6584725 8.15078172,13.0015725 9.80768172,13.0015725 Z" id="Shape" fill="#96A7AF"></path>
    </g>
</svg>