<?xml version="1.0" encoding="UTF-8"?>
<svg width="14px" height="20px" viewBox="0 0 14 20" version="1.1" xmlns="http://www.w3.org/2000/svg" xmlns:xlink="http://www.w3.org/1999/xlink">
    <title>Shape</title>
    <g id="Symbols" stroke="none" stroke-width="1" fill="none" fill-rule="evenodd">
        <g id="Group" transform="translate(-33.000000, -30.000000)" fill="#FF565E">
            <path d="M36.70711,35.70711 C36.31658,36.09763 35.68342,36.09763 35.29289,35.70711 C34.90237,35.31658 34.90237,34.68342 35.29289,34.29289 L39.2929,30.29289 C39.6834,29.90237 40.3166,29.90237 40.7071,30.29289 L44.7071,34.29289 C45.0976,34.68342 45.0976,35.31658 44.7071,35.70711 C44.3166,36.09763 43.6834,36.09763 43.2929,35.70711 L41,33.41421 L41,38 L39,38 L39,33.41421 L36.70711,35.70711 Z M39,38 L36,38 C34.34315,38 33,39.3431 33,41 L33,47 C33,48.6569 34.34315,50 36,50 L44,50 C45.6569,50 47,48.6569 47,47 L47,41 C47,39.3431 45.6569,38 44,38 L41,38 L41,43 C41,43.5523 40.5523,44 40,44 C39.4477,44 39,43.5523 39,43 L39,38 Z" id="Shape"></path>
        </g>
    </g>
</svg>