<?xml version="1.0" standalone="no"?><!DOCTYPE svg PUBLIC "-//W3C//DTD SVG 20010904//EN"
    "http://www.w3.org/TR/2001/REC-SVG-20010904/DTD/svg10.dtd">
<svg height="128.000000pt" preserveAspectRatio="xMidYMid meet" version="1.0"
    viewBox="0 0 128.000000 128.000000" width="128.000000pt" xmlns="http://www.w3.org/2000/svg">

    <g fill="#000000" stroke="none"
        transform="translate(0.000000,128.000000) scale(0.100000,-0.100000)">
        <path d="M495 991 c-88 -25 -148 -54 -241 -117 -92 -61 -254 -210 -254 -234 0
-24 162 -173 254 -234 274 -183 498 -183 772 0 92 61 254 210 254 234 0 22
-109 139 -183 199 -186 148 -417 206 -602 152z m334 -64 c107 -38 205 -100
304 -196 l89 -86 -85 -80 c-100 -94 -227 -176 -329 -213 -104 -37 -232 -37
-336 0 -101 36 -227 118 -325 210 l-82 78 77 74 c123 117 258 199 387 231 80
21 211 13 300 -18z" />
        <path d="M540 828 c-25 -14 -58 -44 -75 -67 -27 -39 -30 -50 -30 -120 0 -68 3
-82 27 -117 15 -21 44 -50 65 -64 31 -21 48 -25 113 -25 65 0 82 4 113 25 21
14 50 43 65 64 24 35 27 49 27 116 0 67 -3 81 -27 116 -44 62 -90 88 -167 92
-55 3 -74 -1 -111 -20z m163 -42 c103 -43 128 -177 48 -257 -65 -65 -157 -65
-222 0 -124 123 13 325 174 257z" />
    </g>
</svg>
